<svg xmlns="http://www.w3.org/2000/svg" xmlns:xlink="http://www.w3.org/1999/xlink" viewBox="0 0 293.92 268.53"><defs><style>.cls-1{fill:url(#linear-gradient);}.cls-2{isolation:isolate;}.cls-3{clip-path:url(#clip-path);}.cls-4{fill:url(#linear-gradient-3);}.cls-5{fill:url(#linear-gradient-4);}.cls-6{fill:url(#linear-gradient-5);}.cls-7{fill:url(#linear-gradient-6);}.cls-8{fill:url(#linear-gradient-7);}.cls-9{fill:url(#linear-gradient-8);}.cls-10{fill:url(#linear-gradient-9);}.cls-11{fill:url(#linear-gradient-10);}.cls-12{fill:url(#linear-gradient-11);}.cls-13{fill:url(#linear-gradient-12);}.cls-14{fill:#aaf545;}.cls-15{fill:url(#linear-gradient-13);}.cls-16{fill:url(#linear-gradient-14);}.cls-17{fill:url(#linear-gradient-15);}.cls-18{fill:url(#linear-gradient-16);}.cls-19{fill:url(#linear-gradient-17);}.cls-20{fill:url(#linear-gradient-18);}.cls-21{fill:url(#linear-gradient-19);}.cls-22{fill:url(#linear-gradient-20);}.cls-23{fill:url(#linear-gradient-21);}.cls-24{fill:url(#linear-gradient-22);}.cls-25{fill:url(#linear-gradient-23);}.cls-26{fill:url(#linear-gradient-24);}.cls-27{fill:url(#linear-gradient-25);}.cls-28{fill:url(#linear-gradient-26);}.cls-29{fill:url(#linear-gradient-27);}.cls-30{fill:url(#linear-gradient-28);}.cls-31{fill:url(#linear-gradient-29);}.cls-32{fill:url(#linear-gradient-30);}.cls-33{fill:url(#linear-gradient-31);}.cls-34{fill:url(#linear-gradient-32);}.cls-35{fill:url(#linear-gradient-33);}.cls-36{fill:url(#linear-gradient-34);}.cls-37{fill:url(#linear-gradient-35);}.cls-38{fill:url(#linear-gradient-36);}.cls-39{fill:url(#linear-gradient-37);}.cls-40{fill:url(#linear-gradient-38);}.cls-41{fill:url(#linear-gradient-39);}.cls-42{fill:url(#linear-gradient-40);}.cls-43{fill:url(#linear-gradient-41);}.cls-44{fill:url(#linear-gradient-42);}.cls-45{fill:url(#linear-gradient-43);}.cls-46{fill:url(#linear-gradient-44);}.cls-47{fill:url(#linear-gradient-45);}.cls-48{fill:url(#linear-gradient-46);}.cls-49{fill:url(#linear-gradient-47);}.cls-50{fill:#9485bf;}.cls-51{fill:url(#linear-gradient-48);}.cls-52{fill:url(#linear-gradient-49);}.cls-53{fill:url(#linear-gradient-50);}.cls-54{fill:url(#linear-gradient-51);}.cls-55{fill:url(#linear-gradient-52);}.cls-56{fill:url(#linear-gradient-53);}.cls-57{fill:url(#linear-gradient-54);}.cls-58{fill:url(#linear-gradient-55);}.cls-59{fill:url(#linear-gradient-56);}.cls-60{fill:url(#linear-gradient-57);}.cls-61{fill:url(#linear-gradient-58);}.cls-62{fill:url(#linear-gradient-59);}.cls-63{fill:url(#linear-gradient-60);}.cls-64{fill:url(#linear-gradient-61);}.cls-65{fill:url(#linear-gradient-62);}.cls-66{fill:url(#linear-gradient-63);}.cls-67{fill:url(#linear-gradient-64);}.cls-68{fill:url(#linear-gradient-65);}.cls-69{fill:url(#linear-gradient-66);}.cls-70{fill:url(#linear-gradient-67);}.cls-71{fill:url(#linear-gradient-68);}.cls-72{fill:url(#linear-gradient-69);}.cls-73{fill:url(#linear-gradient-70);}.cls-74{fill:url(#linear-gradient-71);}.cls-75{fill:url(#linear-gradient-72);}.cls-76{fill:url(#linear-gradient-73);}.cls-77{fill:url(#linear-gradient-74);}.cls-78{fill:url(#linear-gradient-75);}.cls-79{fill:url(#linear-gradient-76);}.cls-80{fill:url(#linear-gradient-77);}.cls-81{fill:url(#linear-gradient-78);}.cls-82{fill:url(#linear-gradient-79);}.cls-83{fill:url(#linear-gradient-80);}.cls-84{fill:url(#linear-gradient-81);}.cls-85{fill:url(#linear-gradient-82);}.cls-86{fill:url(#linear-gradient-83);}.cls-87{fill:url(#linear-gradient-84);}.cls-88{fill:url(#linear-gradient-85);}.cls-89{fill:url(#linear-gradient-86);}.cls-90{fill:url(#linear-gradient-87);}.cls-91{fill:url(#linear-gradient-88);}.cls-92{fill:url(#linear-gradient-89);}.cls-93{fill:url(#linear-gradient-90);}.cls-94{fill:url(#linear-gradient-91);}.cls-95{fill:url(#linear-gradient-92);}.cls-96{fill:url(#linear-gradient-93);}.cls-97{fill:url(#linear-gradient-94);}.cls-98{fill:#6b0e19;}.cls-99{fill:#fff;}.cls-100,.cls-102,.cls-103,.cls-104,.cls-105,.cls-106,.cls-107,.cls-108,.cls-110{opacity:0.3;mix-blend-mode:multiply;}.cls-100{fill:url(#Degradado_sin_nombre_3);}.cls-101,.cls-108{fill:#010101;}.cls-102{fill:url(#Degradado_sin_nombre_6);}.cls-103{fill:url(#Degradado_sin_nombre_6-2);}.cls-104{fill:url(#Degradado_sin_nombre_6-3);}.cls-105{fill:url(#Degradado_sin_nombre_6-4);}.cls-106{fill:url(#Degradado_sin_nombre_6-5);}.cls-107{fill:url(#Degradado_sin_nombre_6-6);}.cls-109{fill:url(#linear-gradient-95);}.cls-110{fill:url(#Degradado_sin_nombre_725);}.cls-111{fill:url(#linear-gradient-99);}.cls-112{stroke:#9e86be;stroke-miterlimit:10;stroke-width:0.5px;fill:url(#linear-gradient-108);}.cls-113{fill:url(#linear-gradient-109);}.cls-114{fill:url(#linear-gradient-112);}.cls-115{fill:url(#linear-gradient-113);}.cls-116{fill:#b2f552;}</style><linearGradient id="linear-gradient" x1="245.45" y1="114.49" x2="16.47" y2="114.49" gradientUnits="userSpaceOnUse"><stop offset="0.09" stop-color="#aaf545"/><stop offset="1" stop-color="#ccf381"/></linearGradient><clipPath id="clip-path"><circle id="_Ellipse_" data-name="&lt;Ellipse&gt;" class="cls-1" cx="130.96" cy="114.49" r="114.49"/></clipPath><linearGradient id="linear-gradient-3" x1="1150.63" y1="-97.41" x2="1179.92" y2="-97.41" gradientTransform="matrix(-0.9, 0.43, 0.43, 0.9, 1171.66, -311.41)" gradientUnits="userSpaceOnUse"><stop offset="0" stop-color="#aaf545"/><stop offset="1" stop-color="#75ba31"/></linearGradient><linearGradient id="linear-gradient-4" x1="1141.89" y1="-36.39" x2="1141.89" y2="-161.39" xlink:href="#linear-gradient-3"/><linearGradient id="linear-gradient-5" x1="52.31" y1="102.82" x2="127.24" y2="102.82" gradientTransform="matrix(1, 0, 0, 1, 0, 0)" xlink:href="#linear-gradient-3"/><linearGradient id="linear-gradient-6" x1="795.25" y1="-332.01" x2="815.6" y2="-332.01" gradientTransform="matrix(-0.4, 0.91, 0.91, 0.4, 682.04, -470.63)" xlink:href="#linear-gradient-3"/><linearGradient id="linear-gradient-7" x1="789.17" y1="-289.59" x2="789.17" y2="-376.48" gradientTransform="matrix(-0.4, 0.91, 0.91, 0.4, 682.04, -470.63)" xlink:href="#linear-gradient-3"/><linearGradient id="linear-gradient-8" x1="10.53" y1="126.92" x2="108.07" y2="126.92" gradientTransform="matrix(1, 0, 0, 1, 0, 0)" xlink:href="#linear-gradient-3"/><linearGradient id="linear-gradient-9" x1="159.02" y1="116.72" x2="224.06" y2="116.72" gradientTransform="matrix(1, 0, 0, 1, 0, 0)" xlink:href="#linear-gradient-3"/><linearGradient id="linear-gradient-10" x1="123.97" y1="469.68" x2="123.97" y2="344.68" gradientTransform="translate(241.96 -311.41) rotate(25.51)" xlink:href="#linear-gradient-3"/><linearGradient id="linear-gradient-11" x1="149.74" y1="121.07" x2="224.66" y2="121.07" gradientTransform="matrix(1, 0, 0, 1, 0, 0)" xlink:href="#linear-gradient-3"/><linearGradient id="linear-gradient-12" x1="149.33" y1="121.07" x2="225.05" y2="121.07" gradientTransform="matrix(1, 0, 0, 1, 0, 0)" xlink:href="#linear-gradient-3"/><linearGradient id="linear-gradient-13" x1="234.38" y1="595.05" x2="306.05" y2="417.02" gradientTransform="translate(110.61 -364.51) rotate(16.25)" xlink:href="#linear-gradient-3"/><linearGradient id="linear-gradient-14" x1="226.91" y1="592.04" x2="298.57" y2="414.01" gradientTransform="translate(110.61 -364.51) rotate(16.25)" xlink:href="#linear-gradient-3"/><linearGradient id="linear-gradient-15" x1="221.04" y1="589.68" x2="292.7" y2="411.65" gradientTransform="translate(110.61 -364.51) rotate(16.25)" xlink:href="#linear-gradient-3"/><linearGradient id="linear-gradient-16" x1="217.59" y1="588.29" x2="289.25" y2="410.26" gradientTransform="translate(110.61 -364.51) rotate(16.25)" xlink:href="#linear-gradient-3"/><linearGradient id="linear-gradient-17" x1="246.53" y1="140.73" x2="250.73" y2="140.73" gradientTransform="matrix(1, 0, 0, 1, 0, 0)" xlink:href="#linear-gradient-3"/><linearGradient id="linear-gradient-18" x1="246.55" y1="140.72" x2="251.03" y2="140.72" gradientTransform="matrix(1, 0, 0, 1, 0, 0)" xlink:href="#linear-gradient-3"/><linearGradient id="linear-gradient-19" x1="246.23" y1="141.62" x2="246.63" y2="141.62" gradientTransform="matrix(1, 0, 0, 1, 0, 0)" xlink:href="#linear-gradient-3"/><linearGradient id="linear-gradient-20" x1="246.52" y1="141.77" x2="246.55" y2="141.77" gradientTransform="matrix(1, 0, 0, 1, 0, 0)" xlink:href="#linear-gradient-3"/><linearGradient id="linear-gradient-21" x1="229.67" y1="593.15" x2="301.33" y2="415.13" gradientTransform="translate(110.61 -364.51) rotate(16.25)" xlink:href="#linear-gradient-3"/><linearGradient id="linear-gradient-22" x1="217.32" y1="588.18" x2="288.98" y2="410.15" gradientTransform="translate(110.61 -364.51) rotate(16.25)" xlink:href="#linear-gradient-3"/><linearGradient id="linear-gradient-23" x1="221.48" y1="589.86" x2="293.15" y2="411.83" gradientTransform="translate(110.61 -364.51) rotate(16.25)" xlink:href="#linear-gradient-3"/><linearGradient id="linear-gradient-24" x1="229.48" y1="153.29" x2="230.43" y2="153.29" gradientTransform="matrix(1, 0, 0, 1, 0, 0)" xlink:href="#linear-gradient-3"/><linearGradient id="linear-gradient-25" x1="229.39" y1="152.76" x2="231.82" y2="152.76" gradientTransform="matrix(1, 0, 0, 1, 0, 0)" xlink:href="#linear-gradient-3"/><linearGradient id="linear-gradient-26" x1="209.74" y1="585.13" x2="281.41" y2="407.1" gradientTransform="translate(110.61 -364.51) rotate(16.25)" xlink:href="#linear-gradient-3"/><linearGradient id="linear-gradient-27" x1="218.47" y1="588.65" x2="290.14" y2="410.62" gradientTransform="translate(110.61 -364.51) rotate(16.25)" xlink:href="#linear-gradient-3"/><linearGradient id="linear-gradient-28" x1="226.45" y1="591.86" x2="298.12" y2="413.83" gradientTransform="translate(110.61 -364.51) rotate(16.25)" xlink:href="#linear-gradient-3"/><linearGradient id="linear-gradient-29" x1="203.89" y1="582.78" x2="275.56" y2="404.75" gradientTransform="translate(110.61 -364.51) rotate(16.25)" xlink:href="#linear-gradient-3"/><linearGradient id="linear-gradient-30" x1="201.41" y1="581.78" x2="273.08" y2="403.75" gradientTransform="translate(110.61 -364.51) rotate(16.25)" xlink:href="#linear-gradient-3"/><linearGradient id="linear-gradient-31" x1="194.7" y1="191.43" x2="194.86" y2="191.43" gradientTransform="matrix(1, 0, 0, 1, 0, 0)" xlink:href="#linear-gradient-3"/><linearGradient id="linear-gradient-32" x1="194.62" y1="191.2" x2="195.18" y2="191.2" gradientTransform="matrix(1, 0, 0, 1, 0, 0)" xlink:href="#linear-gradient-3"/><linearGradient id="linear-gradient-33" x1="226.7" y1="591.96" x2="298.36" y2="413.93" gradientTransform="translate(110.61 -364.51) rotate(16.25)" xlink:href="#linear-gradient-3"/><linearGradient id="linear-gradient-34" x1="183.72" y1="212.14" x2="184.03" y2="212.14" gradientTransform="matrix(1, 0, 0, 1, 0, 0)" xlink:href="#linear-gradient-3"/><linearGradient id="linear-gradient-35" x1="183.83" y1="211.54" x2="184.07" y2="211.54" gradientTransform="matrix(1, 0, 0, 1, 0, 0)" xlink:href="#linear-gradient-3"/><linearGradient id="linear-gradient-36" x1="184.07" y1="211.23" x2="184.09" y2="211.23" gradientTransform="matrix(1, 0, 0, 1, 0, 0)" xlink:href="#linear-gradient-3"/><linearGradient id="linear-gradient-37" x1="183.59" y1="211.56" x2="184.07" y2="211.56" gradientTransform="matrix(1, 0, 0, 1, 0, 0)" xlink:href="#linear-gradient-3"/><linearGradient id="linear-gradient-38" x1="183.63" y1="211.94" x2="183.83" y2="211.94" gradientTransform="matrix(1, 0, 0, 1, 0, 0)" xlink:href="#linear-gradient-3"/><linearGradient id="linear-gradient-39" x1="201.69" y1="581.89" x2="273.35" y2="403.86" gradientTransform="translate(110.61 -364.51) rotate(16.25)" xlink:href="#linear-gradient-3"/><linearGradient id="linear-gradient-40" x1="183.47" y1="211.88" x2="183.63" y2="211.88" gradientTransform="matrix(1, 0, 0, 1, 0, 0)" xlink:href="#linear-gradient-3"/><linearGradient id="linear-gradient-41" x1="176.79" y1="231.68" x2="176.98" y2="231.68" gradientTransform="matrix(1, 0, 0, 1, 0, 0)" xlink:href="#linear-gradient-3"/><linearGradient id="linear-gradient-42" x1="176.58" y1="231.49" x2="176.84" y2="231.49" gradientTransform="matrix(1, 0, 0, 1, 0, 0)" xlink:href="#linear-gradient-3"/><linearGradient id="linear-gradient-43" x1="176.75" y1="231.07" x2="177.02" y2="231.07" gradientTransform="matrix(1, 0, 0, 1, 0, 0)" xlink:href="#linear-gradient-3"/><linearGradient id="linear-gradient-44" x1="176.57" y1="231.32" x2="176.79" y2="231.32" gradientTransform="matrix(1, 0, 0, 1, 0, 0)" xlink:href="#linear-gradient-3"/><linearGradient id="linear-gradient-45" x1="199.41" y1="580.97" x2="271.08" y2="402.95" gradientTransform="translate(110.61 -364.51) rotate(16.25)" xlink:href="#linear-gradient-3"/><linearGradient id="linear-gradient-46" x1="208.45" y1="584.61" x2="280.12" y2="406.59" gradientTransform="translate(110.61 -364.51) rotate(16.25)" xlink:href="#linear-gradient-3"/><linearGradient id="linear-gradient-47" x1="172.8" y1="192.34" x2="267.11" y2="192.34" gradientTransform="matrix(1, 0, 0, 1, 0, 0)" xlink:href="#linear-gradient-3"/><linearGradient id="linear-gradient-48" x1="81.76" y1="207.28" x2="81.76" y2="194.33" gradientTransform="matrix(1, 0, 0, 1, 0, 0)" xlink:href="#linear-gradient-3"/><linearGradient id="linear-gradient-49" x1="76.82" y1="182.17" x2="76.82" y2="175.53" gradientTransform="matrix(1, 0, 0, 1, 0, 0)" xlink:href="#linear-gradient-3"/><linearGradient id="linear-gradient-50" x1="85.62" y1="217.09" x2="85.62" y2="204.04" gradientTransform="matrix(1, 0, 0, 1, 0, 0)" xlink:href="#linear-gradient-3"/><linearGradient id="linear-gradient-51" x1="69.35" y1="217.89" x2="80.96" y2="217.89" gradientTransform="matrix(1, 0, 0, 1, 0, 0)" xlink:href="#linear-gradient-3"/><linearGradient id="linear-gradient-52" x1="65.23" y1="209.41" x2="76.96" y2="209.41" gradientTransform="matrix(1, 0, 0, 1, 0, 0)" xlink:href="#linear-gradient-3"/><linearGradient id="linear-gradient-53" x1="78.59" y1="199.54" x2="78.59" y2="188.43" gradientTransform="matrix(1, 0, 0, 1, 0, 0)" xlink:href="#linear-gradient-3"/><linearGradient id="linear-gradient-54" x1="78.15" y1="148.06" x2="78.15" y2="135.48" gradientTransform="matrix(1, 0, 0, 1, 0, 0)" xlink:href="#linear-gradient-3"/><linearGradient id="linear-gradient-55" x1="62.24" y1="199.84" x2="74.45" y2="199.84" gradientTransform="matrix(1, 0, 0, 1, 0, 0)" xlink:href="#linear-gradient-3"/><linearGradient id="linear-gradient-56" x1="77.08" y1="159.14" x2="77.08" y2="154.26" gradientTransform="matrix(1, 0, 0, 1, 0, 0)" xlink:href="#linear-gradient-3"/><linearGradient id="linear-gradient-57" x1="86.32" y1="159.14" x2="86.32" y2="154.26" gradientTransform="matrix(-1, 0, 0, 1, 154.16, 0)" xlink:href="#linear-gradient-3"/><linearGradient id="linear-gradient-58" x1="78.48" y1="153.19" x2="78.48" y2="147.71" gradientTransform="matrix(1, 0, 0, 1, 0, 0)" xlink:href="#linear-gradient-3"/><linearGradient id="linear-gradient-59" x1="88.61" y1="153.19" x2="88.61" y2="147.71" gradientTransform="matrix(-1, 0, 0, 1, 156.96, 0)" xlink:href="#linear-gradient-3"/><linearGradient id="linear-gradient-60" x1="77.84" y1="190.8" x2="77.84" y2="182.15" gradientTransform="matrix(1, 0, 0, 1, 0, 0)" xlink:href="#linear-gradient-3"/><linearGradient id="linear-gradient-61" x1="61.45" y1="190.42" x2="73.02" y2="190.42" gradientTransform="matrix(1, 0, 0, 1, 0, 0)" xlink:href="#linear-gradient-3"/><linearGradient id="linear-gradient-62" x1="75.54" y1="167.32" x2="75.54" y2="162.43" gradientTransform="matrix(1, 0, 0, 1, 0, 0)" xlink:href="#linear-gradient-3"/><linearGradient id="linear-gradient-63" x1="76.28" y1="175.39" x2="76.28" y2="168.65" gradientTransform="matrix(1, 0, 0, 1, 0, 0)" xlink:href="#linear-gradient-3"/><linearGradient id="linear-gradient-64" x1="61.3" y1="165.07" x2="71.74" y2="165.07" gradientTransform="matrix(1, 0, 0, 1, 0, 0)" xlink:href="#linear-gradient-3"/><linearGradient id="linear-gradient-65" x1="60.77" y1="181.11" x2="71.9" y2="181.11" gradientTransform="matrix(1, 0, 0, 1, 0, 0)" xlink:href="#linear-gradient-3"/><linearGradient id="linear-gradient-66" x1="61.24" y1="173.42" x2="71.5" y2="173.42" gradientTransform="matrix(1, 0, 0, 1, 0, 0)" xlink:href="#linear-gradient-3"/><linearGradient id="linear-gradient-67" x1="71.71" y1="187.66" x2="86.39" y2="187.66" gradientTransform="matrix(1, 0, 0, 1, 0, 0)" xlink:href="#linear-gradient-3"/><linearGradient id="linear-gradient-68" x1="125.45" y1="205.99" x2="163.2" y2="205.99" gradientTransform="matrix(1, 0, 0, 1, 0, 0)" xlink:href="#linear-gradient-3"/><linearGradient id="linear-gradient-69" x1="128.27" y1="185.16" x2="162.61" y2="185.16" gradientTransform="matrix(1, 0, 0, 1, 0, 0)" xlink:href="#linear-gradient-3"/><linearGradient id="linear-gradient-70" x1="131.1" y1="137.46" x2="156.41" y2="137.46" gradientTransform="matrix(1, 0, 0, 1, 0, 0)" xlink:href="#linear-gradient-3"/><linearGradient id="linear-gradient-71" x1="127.86" y1="76.38" x2="137.92" y2="76.38" gradientTransform="matrix(1, 0, 0, 1, 0, 0)" xlink:href="#linear-gradient-3"/><linearGradient id="linear-gradient-72" x1="125.47" y1="59.92" x2="133.08" y2="59.92" gradientTransform="matrix(1, 0, 0, 1, 0, 0)" xlink:href="#linear-gradient-3"/><linearGradient id="linear-gradient-73" x1="131.15" y1="115.52" x2="153.2" y2="115.52" gradientTransform="matrix(1, 0, 0, 1, 0, 0)" xlink:href="#linear-gradient-3"/><linearGradient id="linear-gradient-74" x1="130.22" y1="162.71" x2="162.61" y2="162.71" gradientTransform="matrix(1, 0, 0, 1, 0, 0)" xlink:href="#linear-gradient-3"/><linearGradient id="linear-gradient-75" x1="130.69" y1="129.14" x2="130.86" y2="129.14" gradientTransform="matrix(1, 0, 0, 1, 0, 0)" xlink:href="#linear-gradient-3"/><linearGradient id="linear-gradient-76" x1="118.41" y1="155.84" x2="118.41" y2="124.24" gradientTransform="matrix(1, 0, 0, 1, 0, 0)" xlink:href="#linear-gradient-3"/><linearGradient id="linear-gradient-77" x1="117.37" y1="129.2" x2="117.37" y2="100.23" gradientTransform="matrix(1, 0, 0, 1, 0, 0)" xlink:href="#linear-gradient-3"/><linearGradient id="linear-gradient-78" x1="129.42" y1="94.33" x2="145.51" y2="94.33" gradientTransform="matrix(1, 0, 0, 1, 0, 0)" xlink:href="#linear-gradient-3"/><linearGradient id="linear-gradient-79" x1="130.17" y1="181.46" x2="130.22" y2="181.46" gradientTransform="matrix(1, 0, 0, 1, 0, 0)" xlink:href="#linear-gradient-3"/><linearGradient id="linear-gradient-80" x1="115.1" y1="181.48" x2="115.1" y2="146.84" gradientTransform="matrix(1, 0, 0, 1, 0, 0)" xlink:href="#linear-gradient-3"/><linearGradient id="linear-gradient-81" x1="129.26" y1="107.26" x2="129.44" y2="107.26" gradientTransform="matrix(1, 0, 0, 1, 0, 0)" xlink:href="#linear-gradient-3"/><linearGradient id="linear-gradient-82" x1="117.44" y1="107.42" x2="117.44" y2="84.53" gradientTransform="matrix(1, 0, 0, 1, 0, 0)" xlink:href="#linear-gradient-3"/><linearGradient id="linear-gradient-83" x1="127.89" y1="205.05" x2="128.32" y2="205.05" gradientTransform="matrix(1, 0, 0, 1, 0, 0)" xlink:href="#linear-gradient-3"/><linearGradient id="linear-gradient-84" x1="111.7" y1="205.36" x2="111.7" y2="168.22" gradientTransform="matrix(1, 0, 0, 1, 0, 0)" xlink:href="#linear-gradient-3"/><linearGradient id="linear-gradient-85" x1="118.78" y1="88.9" x2="118.78" y2="72.46" gradientTransform="matrix(1, 0, 0, 1, 0, 0)" xlink:href="#linear-gradient-3"/><linearGradient id="linear-gradient-86" x1="125.32" y1="227.88" x2="125.48" y2="227.88" gradientTransform="matrix(1, 0, 0, 1, 0, 0)" xlink:href="#linear-gradient-3"/><linearGradient id="linear-gradient-87" x1="125.27" y1="70.56" x2="125.38" y2="70.56" gradientTransform="matrix(1, 0, 0, 1, 0, 0)" xlink:href="#linear-gradient-3"/><linearGradient id="linear-gradient-88" x1="107.66" y1="227.98" x2="107.66" y2="187.45" gradientTransform="matrix(1, 0, 0, 1, 0, 0)" xlink:href="#linear-gradient-3"/><linearGradient id="linear-gradient-89" x1="117.95" y1="70.83" x2="117.95" y2="57.87" gradientTransform="matrix(1, 0, 0, 1, 0, 0)" xlink:href="#linear-gradient-3"/><linearGradient id="linear-gradient-90" x1="118.12" y1="56.03" x2="118.12" y2="32.85" gradientTransform="matrix(1, 0, 0, 1, 0, 0)" xlink:href="#linear-gradient-3"/><linearGradient id="linear-gradient-91" x1="122.3" y1="151.54" x2="131.29" y2="151.54" gradientTransform="matrix(1, 0, 0, 1, 0, 0)" xlink:href="#linear-gradient-3"/><linearGradient id="linear-gradient-92" x1="91.93" y1="-80.16" x2="137.41" y2="-80.16" gradientTransform="translate(-32.42 286.17) rotate(-20.32)" xlink:href="#linear-gradient-3"/><linearGradient id="linear-gradient-93" x1="94.09" y1="-22.31" x2="94.09" y2="-136.9" gradientTransform="translate(-32.42 286.17) rotate(-20.32)" xlink:href="#linear-gradient-3"/><linearGradient id="linear-gradient-94" x1="6.24" y1="179.94" x2="65.74" y2="179.94" gradientTransform="matrix(1, 0, 0, 1, 0, 0)" xlink:href="#linear-gradient-3"/><linearGradient id="Degradado_sin_nombre_3" x1="114.11" y1="123.98" x2="174.11" y2="123.98" gradientUnits="userSpaceOnUse"><stop offset="0" stop-color="#fff"/><stop offset="0.38" stop-color="#a0a0a0"/><stop offset="1"/></linearGradient><linearGradient id="Degradado_sin_nombre_6" x1="153.36" y1="109.75" x2="140.23" y2="119.98" gradientUnits="userSpaceOnUse"><stop offset="0" stop-color="#fff"/><stop offset="0.44" stop-color="#f5c6a0"/><stop offset="1" stop-color="#e77c24"/></linearGradient><linearGradient id="Degradado_sin_nombre_6-2" x1="111.38" y1="108.16" x2="122.76" y2="122.92" xlink:href="#Degradado_sin_nombre_6"/><linearGradient id="Degradado_sin_nombre_6-3" x1="164.89" y1="76.81" x2="185.81" y2="86.4" xlink:href="#Degradado_sin_nombre_6"/><linearGradient id="Degradado_sin_nombre_6-4" x1="94.08" y1="78.21" x2="86.7" y2="83.96" xlink:href="#Degradado_sin_nombre_6"/><linearGradient id="Degradado_sin_nombre_6-5" x1="135.18" y1="42.59" x2="126.46" y2="40.67" xlink:href="#Degradado_sin_nombre_6"/><linearGradient id="Degradado_sin_nombre_6-6" x1="126.82" y1="41.06" x2="136.23" y2="42.97" xlink:href="#Degradado_sin_nombre_6"/><linearGradient id="linear-gradient-95" x1="145.88" y1="263.39" x2="145.88" y2="144.63" gradientUnits="userSpaceOnUse"><stop offset="0.29" stop-color="#73ff3f"/><stop offset="0.78" stop-color="#75ba31"/></linearGradient><linearGradient id="Degradado_sin_nombre_725" x1="164.31" y1="187.44" x2="131.54" y2="280.4" gradientUnits="userSpaceOnUse"><stop offset="0" stop-color="#fff"/><stop offset="0.17" stop-color="#fcfcfc"/><stop offset="0.3" stop-color="#f2f2f2"/><stop offset="0.42" stop-color="#e2e2e2"/><stop offset="0.53" stop-color="#cbcbcb"/><stop offset="0.64" stop-color="#adadad"/><stop offset="0.74" stop-color="#898989"/><stop offset="0.84" stop-color="#5d5d5d"/><stop offset="0.93" stop-color="#2c2c2c"/><stop offset="1"/></linearGradient><linearGradient id="linear-gradient-99" x1="181.9" y1="217.48" x2="187.42" y2="203.77" gradientTransform="matrix(1, 0, 0, 1, 0, 0)" xlink:href="#linear-gradient-3"/><linearGradient id="linear-gradient-108" x1="240.65" y1="138.56" x2="268.16" y2="138.56" gradientTransform="matrix(1, 0, 0, 1, 0, 0)" xlink:href="#linear-gradient-3"/><linearGradient id="linear-gradient-109" x1="234.4" y1="593.91" x2="306.06" y2="415.88" gradientTransform="translate(110.61 -364.51) rotate(16.25)" xlink:href="#linear-gradient-3"/><linearGradient id="linear-gradient-112" x1="6.24" y1="168.42" x2="78.66" y2="168.42" gradientTransform="matrix(1, 0, 0, 1, 0, 0)" xlink:href="#linear-gradient-3"/><linearGradient id="linear-gradient-113" x1="26.71" y1="198.7" x2="26.71" y2="125.86" gradientTransform="matrix(1, 0, 0, 1, 0, 0)" xlink:href="#linear-gradient-3"/></defs><title>Asset 1</title><g class="cls-2"><g id="Layer_2" data-name="Layer 2"><g id="OBJECTS"><circle id="_Ellipse_2" data-name="&lt;Ellipse&gt;" class="cls-1" cx="130.96" cy="114.49" r="114.49"/><g class="cls-3"><path class="cls-4" d="M53.06,81.86c-.72,2.75,1.42,4.9,3.39,6.62Q66.4,97.14,77,105c-3.32-.1-7.7.57-7.84,4.23a4.88,4.88,0,0,0,2.13,4.11q9.74,6.93,20,13.15c-2.14-.81-4.66.86-5.29,3.07a7.1,7.1,0,0,0,1.78,6.36A21.06,21.06,0,0,0,93.26,140q12.36,7.2,24.69,14.44a26.1,26.1,0,0,1-.38-3.06c-21.36-36-36-76.25-62-108.89-3.41,2-2.69,6.52-1.59,10A158.37,158.37,0,0,0,65.51,80c-2.8-1.2-5.76-2.41-8.82-1.55A5,5,0,0,0,53.06,81.86Z"/><path class="cls-5" d="M61.59,42.29a6.63,6.63,0,0,0-5.56,0,5.19,5.19,0,0,0-.47.25c26,32.64,40.65,72.92,62,108.89-.4-5.93,1.14-12,3.09-17.64,2.37-7,5.39-13.83,6.28-21.15.23-2,.22-4.27-1.72-5.38a4,4,0,0,0-3.69,0c-2.35,1.12-3.45,3.49-4.46,5.74.72-8.11.74-19.82-1.66-27.6a2.94,2.94,0,0,0-5.08-1l-4.22,7.5A59.25,59.25,0,0,0,98.2,66.44a4.69,4.69,0,0,0-3.41-2.33c-3.44-.42-4.75,3.29-5.34,6.28A55.92,55.92,0,0,0,61.59,42.29Z"/><path class="cls-6" d="M52.31,38.75c31.85,38,46.8,87.32,74.93,128.14"/><path class="cls-7" d="M30.45,132.5c.87,1.77,3,1.94,4.78,1.95q9.18.06,18.34-.61c-1.8,1.45-3.8,3.79-2.22,5.78a3.39,3.39,0,0,0,3,1.2c5.51-.5,11-1.21,16.48-2.11a3,3,0,0,0-1.4,4,4.93,4.93,0,0,0,3.82,2.55,14.58,14.58,0,0,0,4.74-.33l19.56-3.57A16.79,16.79,0,0,1,96,139.93c-27.55-9.29-53.52-23.89-82-29.32-.88,2.61,1.53,4.65,3.69,6a111.3,111.3,0,0,0,18.53,9.26c-2,.63-4.13,1.33-5.35,3.17A3.51,3.51,0,0,0,30.45,132.5Z"/><path class="cls-8" d="M17,107.77a4.58,4.58,0,0,0-3,2.5c-.05.11-.09.23-.13.34,28.49,5.43,54.46,20,82,29.32-2.89-3-4.82-6.83-6.36-10.7-1.91-4.75-3.42-9.73-6.27-14-.77-1.15-1.81-2.36-3.34-2.06a2.76,2.76,0,0,0-2,1.65c-.73,1.66-.23,3.41.26,5-3.3-4.61-8.59-10.78-13.38-13.8a2,2,0,0,0-3.12,1.79L63,113.74a41.08,41.08,0,0,0-15.69-9.82,3.26,3.26,0,0,0-2.85.32c-2,1.33-1,3.89,0,5.73A38.87,38.87,0,0,0,17,107.77Z"/><path class="cls-9" d="M10.53,110.11c34,5.6,64.22,24.84,97.54,33.62"/><path class="cls-10" d="M223.92,100.12c.71,2.75-1.42,4.89-3.39,6.61q-10,8.67-20.59,16.52c3.33-.09,7.71.58,7.85,4.24a4.92,4.92,0,0,1-2.14,4.11q-9.74,6.93-20,13.14c2.15-.8,4.67.87,5.3,3.07a7.08,7.08,0,0,1-1.78,6.36,20.72,20.72,0,0,1-5.49,4.08L159,172.7a26.67,26.67,0,0,0,.39-3.06c21.36-36,36-76.25,62-108.89,3.41,2,2.69,6.51,1.6,10a159.48,159.48,0,0,1-11.54,27.48c2.79-1.2,5.75-2.42,8.82-1.56A5,5,0,0,1,223.92,100.12Z"/><path class="cls-11" d="M215.38,60.55a6.61,6.61,0,0,1,5.57,0,5,5,0,0,1,.46.25c-26,32.64-40.64,72.91-62,108.89.39-5.93-1.15-12-3.09-17.64-2.38-7-5.39-13.83-6.28-21.15-.24-2-.23-4.27,1.72-5.38a4,4,0,0,1,3.69,0c2.35,1.12,3.45,3.49,4.45,5.74-.72-8.11-.73-19.82,1.67-27.6a2.94,2.94,0,0,1,5.07-1l4.23,7.51a59,59,0,0,1,7.91-25.41,4.64,4.64,0,0,1,3.4-2.33c3.44-.42,4.76,3.29,5.34,6.28A55.92,55.92,0,0,1,215.38,60.55Z"/><path class="cls-12" d="M224.66,57c-31.84,38-46.79,87.32-74.92,128.13"/><path class="cls-13" d="M224.66,57a246.59,246.59,0,0,0-20.93,30.64c-6.26,10.68-12,21.66-17.55,32.73s-11.1,22.16-17,33.06l-4.51,8.13-4.71,8-5,7.86-5.24,7.68,5-7.82,4.76-8,4.57-8.09,4.4-8.18c5.76-11,11.24-22.07,16.8-33.15s11.36-22.05,17.78-32.68L208,79.37l5.21-7.71,5.55-7.47Z"/><path class="cls-14" d="M265.89,97.44V254.52a440.65,440.65,0,0,1-58.38-2.81c-45.8-5.14-91.29-16.7-135.15-31-15.11-4.91-30.13-10.15-45.07-15.57a19.58,19.58,0,0,1,21.56-6.92,18.82,18.82,0,0,1,10.92-29.43,24.09,24.09,0,0,1,13.56-43.45,24.74,24.74,0,0,1,23.25,15.46c5.52-8.78,18.57-10.61,27.69-5.65s14.49,15,16.41,25.24c1.91-9.09,13.44-13.3,22.39-10.78s15.74,9.62,22.07,16.42a33,33,0,0,1,34-36.58c-4.25-13,1.93-28.61,13.94-35.17C243.29,88.73,256.78,90.27,265.89,97.44Z"/><path class="cls-15" d="M286.66,128a21.9,21.9,0,0,1,6.92,1.75,46,46,0,0,1-6.79,1.72c-2.23.41-4.43.73-6.64,1s-4.44.46-6.7.57a44.47,44.47,0,0,1-7-.09,22.63,22.63,0,0,1,6.32-3.31,32.46,32.46,0,0,1,6.86-1.56A31.78,31.78,0,0,1,286.66,128Z"/><path class="cls-16" d="M274.19,144.24c-2.55,0-4.88-.25-7.18-.45l-6.82-.63-6.82-.6c-2.07-.2-4.18-.38-6.4-.73q2-1.14,4.06-2.21c.71-.21,1.44-.38,2.16-.53a27.59,27.59,0,0,1,14.62,1.32A19.78,19.78,0,0,1,274.19,144.24Z"/><path class="cls-17" d="M252.78,148.85a24.76,24.76,0,0,1,7.73,2.51c-2.72.51-5.31.73-7.88,1s-5.08.41-7.6.59l-7.62.51c-2.51.13-5,.28-7.74.19.27-.21.51-.43.76-.65a25.94,25.94,0,0,1,6.34-3,35.14,35.14,0,0,1,7.94-1.51A34.07,34.07,0,0,1,252.78,148.85Z"/><path class="cls-18" d="M263.67,126.74a24.84,24.84,0,0,1-3.4,4.86,42,42,0,0,1-4,4,43.68,43.68,0,0,1-4.49,3.44l-1.05.66a18.55,18.55,0,0,0-4.1,1.77,19.46,19.46,0,0,1,2.77-5,28.82,28.82,0,0,1,3.95-4.23,27.71,27.71,0,0,1,4.72-3.37A19,19,0,0,1,263.67,126.74Z"/><path class="cls-19" d="M250.73,139.7a22.61,22.61,0,0,1-4.18,2.07h0a2.47,2.47,0,0,1,.1-.29A18.55,18.55,0,0,1,250.73,139.7Z"/><path class="cls-20" d="M246.55,141.77a22.61,22.61,0,0,0,4.18-2.07,1.67,1.67,0,0,1,.3-.08q-2.06,1.06-4.06,2.21Z"/><path class="cls-21" d="M246.23,141.71l.4-.24a2.47,2.47,0,0,0-.1.29Z"/><path class="cls-22" d="M246.55,141.77s0,0,0,0h0Z"/><path class="cls-23" d="M213.88,211.52a44.87,44.87,0,0,1,14.35.79c-4.73.76-9.3,1.55-13.79,2.63a114.4,114.4,0,0,0-13.13,4,111.3,111.3,0,0,0-12.57,5.54c-4,2-7.87,4.34-11.83,6.77,0-.14.07-.26.11-.4a46,46,0,0,1,9.92-9.33,56.75,56.75,0,0,1,26.94-10Z"/><path class="cls-24" d="M220.67,181.88a27.27,27.27,0,0,1,9.24,2c-3.13.58-6.11,1-9.06,1.49s-5.82,1-8.69,1.65-5.73,1.33-8.6,2.11-5.71,1.61-8.76,2.38l.06-.14a27.68,27.68,0,0,1,7.43-5.47,36.61,36.61,0,0,1,8.93-3.2A36.15,36.15,0,0,1,220.67,181.88Z"/><path class="cls-25" d="M211.76,200.1A28.81,28.81,0,0,1,222,202.27c-3.49.44-6.8.78-10.06,1.31s-6.46,1.14-9.62,1.93-6.27,1.74-9.39,2.83c-2.94,1-5.85,2.2-8.92,3.4,0-.15,0-.32,0-.48,0,0,0,0,0,0a29.45,29.45,0,0,1,7.4-6,37.74,37.74,0,0,1,20.27-5.1Z"/><path class="cls-26" d="M229.48,153.61c.31-.23.62-.45,1-.65-.25.22-.49.44-.76.65Z"/><path class="cls-27" d="M229.48,153.42c.77-.59,1.55-1.19,2.34-1.76-.45.44-.91.87-1.39,1.3-.33.2-.64.42-1,.65h.19l-.28.25A3.43,3.43,0,0,1,229.48,153.42Z"/><path class="cls-28" d="M229.48,153.42a26.58,26.58,0,0,1,2.66-7,36.93,36.93,0,0,1,4.43-6.48,37.37,37.37,0,0,1,5.69-5.41,25.86,25.86,0,0,1,6.91-3.88A61.3,61.3,0,0,1,244.7,137q-2.34,3-4.76,5.8c-1.62,1.89-3.27,3.76-5,5.61-1,1.08-2,2.16-3.12,3.21,0,0,0,0,0,0C231,152.23,230.25,152.83,229.48,153.42Z"/><path class="cls-29" d="M211.51,170.05a27.53,27.53,0,0,1,8.12-4.79,37.3,37.3,0,0,1,18.63-2.14,27.22,27.22,0,0,1,9,2.85c-3.16.3-6.16.42-9.14.63s-5.88.46-8.8.79-5.82.74-8.76,1.21S214.66,169.62,211.51,170.05Z"/><path class="cls-30" d="M197.74,231.65c-2.05.86-4,1.59-6,2.37s-3.85,1.58-5.73,2.43-3.75,1.77-5.6,2.73-3.73,2-5.72,3a20.16,20.16,0,0,1,4.45-4.9,26.8,26.8,0,0,1,5.65-3.47,25.93,25.93,0,0,1,6.32-2A19.82,19.82,0,0,1,197.74,231.65Z"/><path class="cls-31" d="M215.61,164.17a57,57,0,0,1-4.63,5.88,24.62,24.62,0,0,1,1.55-7.47,35.56,35.56,0,0,1,8-12.68,24.43,24.43,0,0,1,6.07-4.6,55.81,55.81,0,0,1-3.3,6.71c-1.2,2.11-2.43,4.15-3.71,6.17S217,162.19,215.61,164.17Z"/><path class="cls-32" d="M207.84,157.8c-1,3-2.16,5.85-3.27,8.66l-3.29,8.34c-1.08,2.78-2.14,5.57-3.19,8.39-.94,2.44-1.84,4.91-2.91,7.42l-.56.87a31.17,31.17,0,0,1,.11-9.15,42.93,42.93,0,0,1,6.78-17.5A31.1,31.1,0,0,1,207.84,157.8Z"/><path class="cls-33" d="M194.7,191.51l.16-.16-.06.14Z"/><path class="cls-34" d="M194.7,191.51l.1,0-.13.3c0-.11,0-.2,0-.31l.56-.87c-.1.25-.21.49-.32.74Z"/><path class="cls-35" d="M179,245.14a7.06,7.06,0,0,1,2.41,1,5.21,5.21,0,0,1,1.8,2,20.86,20.86,0,0,1-2.48-.35c-.76-.15-1.49-.31-2.23-.48s-1.45-.34-2.2-.54a21.22,21.22,0,0,1-2.4-.77,5.39,5.39,0,0,1,2.48-1A7.22,7.22,0,0,1,179,245.14Z"/><path class="cls-36" d="M184,211.74c0,.26-.05.53-.07.8a4.16,4.16,0,0,1-.24-.47l.11-.26Z"/><path class="cls-37" d="M184,211.74l-.2.07.24-.55C184.06,211.42,184.05,211.59,184,211.74Z"/><path class="cls-38" d="M184.07,211.23l0,0s0,0,0,0Z"/><path class="cls-39" d="M184.07,211.23v0l-.24.55-.2.08a.1.1,0,0,1,0-.08C183.75,211.61,183.9,211.42,184.07,211.23Z"/><path class="cls-40" d="M183.63,211.89l.2-.08-.11.26A.51.51,0,0,1,183.63,211.89Z"/><path class="cls-41" d="M184.07,211.23c-.17.19-.32.38-.48.58a27.5,27.5,0,0,1-2.5-8.07,37,37,0,0,1,1.75-18.3,27,27,0,0,1,4.5-8.09c-.3,3.11-.76,6-1.13,8.93s-.71,5.75-1,8.62-.49,5.75-.66,8.66C184.39,206.07,184.29,208.6,184.07,211.23Z"/><path class="cls-42" d="M183.63,211.89l-.16.06.12-.14A.1.1,0,0,0,183.63,211.89Z"/><path class="cls-43" d="M176.84,231.47l.14.42-.19-.22A.46.46,0,0,1,176.84,231.47Z"/><path class="cls-44" d="M176.79,231.67l-.21-.24.21-.12a1.42,1.42,0,0,0,.05.16A.46.46,0,0,0,176.79,231.67Z"/><path class="cls-45" d="M177,230.83c0,.14-.08.26-.11.4l-.12.08a.76.76,0,0,1,0-.11Z"/><path class="cls-46" d="M176.75,231.2a.76.76,0,0,0,0,.11l-.21.12h0Z"/><path class="cls-47" d="M176.75,231.2l-.18.23a40.69,40.69,0,0,1-6.75-10.78,51.47,51.47,0,0,1-3.93-26.35,40.39,40.39,0,0,1,3.58-12.84c-.14,4.44-.26,8.73-.11,13a109.81,109.81,0,0,0,3.73,25.05C174.12,223.39,175.39,227.23,176.75,231.2Z"/><path class="cls-48" d="M169.91,236.14c1.24,2.13,2.59,4.21,4,6.39a23.39,23.39,0,0,1-5.86-5.06,30.4,30.4,0,0,1-4.2-6.56,29.93,29.93,0,0,1-2.37-7.41,23.19,23.19,0,0,1-.17-7.75c.81,2.47,1.54,4.83,2.4,7.14s1.78,4.57,2.81,6.76S168.66,234,169.91,236.14Z"/><path class="cls-49" d="M172.8,252.36a148.66,148.66,0,0,1,94.31-120"/><path class="cls-50" d="M172.8,252.36a146.7,146.7,0,0,1,3.65-19.71,149.07,149.07,0,0,1,6.36-19,145.24,145.24,0,0,1,49-62.41,149.83,149.83,0,0,1,17-10.69,146.73,146.73,0,0,1,18.29-8.2A146.42,146.42,0,0,0,249.06,141,152.52,152.52,0,0,0,172.8,252.36Z"/><path class="cls-51" d="M85.76,194.73a1.88,1.88,0,0,1,.41,1.42,7.31,7.31,0,0,1-1.55,3.58,34.09,34.09,0,0,1-7.28,7.55,19.27,19.27,0,0,1,1.3-6.59A12.88,12.88,0,0,1,83,195a3.46,3.46,0,0,1,1.34-.64A1.54,1.54,0,0,1,85.76,194.73Z"/><path class="cls-52" d="M81.42,175.88a1.4,1.4,0,0,1,.2,1.46,3.54,3.54,0,0,1-1,1.21,14.62,14.62,0,0,1-8.71,3.62c0-.16,0-.33,0-.48a14.64,14.64,0,0,1,7.45-5.93A2,2,0,0,1,81.42,175.88Z"/><path class="cls-53" d="M86.16,212.62a50.2,50.2,0,0,1-5.29,4.47c-.06-.13-.12-.25-.17-.38a15.61,15.61,0,0,1,4.44-10.57,6.81,6.81,0,0,1,3.25-2,1.88,1.88,0,0,1,1.78.35,1.53,1.53,0,0,1,.36,1.15,3.82,3.82,0,0,1-.33,1.2A18.58,18.58,0,0,1,86.16,212.62Z"/><path class="cls-54" d="M80.87,217.09l.09.2A26.07,26.07,0,0,1,71.87,220a3.55,3.55,0,0,1-1.59-.09,1.34,1.34,0,0,1-.93-1.19,1.82,1.82,0,0,1,1-1.31,10.21,10.21,0,0,1,10.35-.4v0a1.93,1.93,0,0,1,0-.24C80.75,216.84,80.81,217,80.87,217.09Z"/><path class="cls-55" d="M77,207.44l0,.23a23.75,23.75,0,0,1-9.7,4c-.66.11-1.47.14-1.85-.42s.05-1.42.56-1.93a8.65,8.65,0,0,1,5.34-2.25A25.22,25.22,0,0,1,77,207.44Z"/><path class="cls-56" d="M80.62,194.13a36.53,36.53,0,0,1-5.78,5.41c-.07-.26-.14-.51-.19-.77a17,17,0,0,1,5-9.49,4,4,0,0,1,.73-.58,1.46,1.46,0,0,1,1.12-.23,1.76,1.76,0,0,1,1.08,1.86A6.61,6.61,0,0,1,80.62,194.13Z"/><path class="cls-57" d="M74.35,148.06a15.47,15.47,0,0,1,4.57-11.64,3.61,3.61,0,0,1,1.13-.81,1.44,1.44,0,0,1,1.34.06c.7.46.66,1.51.43,2.33-1.12,4.07-4.33,7.17-7.42,10.06Z"/><path class="cls-58" d="M63.46,199a12.17,12.17,0,0,1,11,.53l-8.87,2.07a4.23,4.23,0,0,1-2.2.12A1.47,1.47,0,0,1,62.29,200,2,2,0,0,1,63.46,199Z"/><path class="cls-59" d="M72.48,159a12.23,12.23,0,0,1,6.76-4.54,3.15,3.15,0,0,1,1.39-.11,1.3,1.3,0,0,1,1,.85c.2.73-.46,1.4-1.08,1.82a12.9,12.9,0,0,1-8.11,2.13A.71.71,0,0,1,72.48,159Z"/><path class="cls-60" d="M72.45,159a12.23,12.23,0,0,0-6.76-4.54,3.15,3.15,0,0,0-1.39-.11,1.3,1.3,0,0,0-1,.85c-.2.73.46,1.4,1.08,1.82a12.91,12.91,0,0,0,8.12,2.13A.68.68,0,0,0,72.45,159Z"/><path class="cls-61" d="M73.59,153.18l-.17,0a2.93,2.93,0,0,1,0-.29,20,20,0,0,1,3.26-3.18,9.65,9.65,0,0,1,4.38-1.92,3.23,3.23,0,0,1,1.45.07,1.45,1.45,0,0,1,1,1c.16.8-.58,1.49-1.27,1.93A15.35,15.35,0,0,1,73.59,153.18Z"/><path class="cls-62" d="M73.24,153.18l.17,0a2.93,2.93,0,0,0,0-.29,20.42,20.42,0,0,0-3.26-3.18,9.65,9.65,0,0,0-4.38-1.92,3.22,3.22,0,0,0-1.45.07,1.45,1.45,0,0,0-1,1c-.16.8.58,1.49,1.27,1.93A15.35,15.35,0,0,0,73.24,153.18Z"/><path class="cls-63" d="M73.11,190.76a15.9,15.9,0,0,1,7-8.17c.66-.38,1.57-.69,2.14-.18a1.35,1.35,0,0,1,.32,1.28,3.37,3.37,0,0,1-.66,1.2,16.71,16.71,0,0,1-2.82,2.88,16.51,16.51,0,0,1-5.87,3v0h-.07Z"/><path class="cls-64" d="M73,190.8l-7.15,1.26a11,11,0,0,1-3.08.25,1.66,1.66,0,0,1-1.07-.42,1.26,1.26,0,0,1,0-1.53,3,3,0,0,1,1.29-1,10,10,0,0,1,9.94,1h0C73,190.53,73,190.67,73,190.8Z"/><path class="cls-65" d="M71.71,167.3v-.14c0-.15,0-.3,0-.44a12.77,12.77,0,0,1,4.74-4,3,3,0,0,1,1.7-.24,1.46,1.46,0,0,1,1.18,1.13,2,2,0,0,1-.89,1.62c-1.77,1.45-4.18,1.8-6.45,2.1Z"/><path class="cls-66" d="M80.15,171.51a12.3,12.3,0,0,1-8.45,3.88v-.08h-.12v-.11c1.33-3,3.87-5.71,7.1-6.45.76-.18,1.71-.17,2.12.49S80.72,170.88,80.15,171.51Z"/><path class="cls-67" d="M71.71,167.16A28.21,28.21,0,0,1,63,166.08c-.76-.21-1.65-.63-1.69-1.42s.77-1.29,1.5-1.49a7.27,7.27,0,0,1,4.91.54,12.66,12.66,0,0,1,4,3.07h0s0,0,.07-.07c0,.14,0,.29,0,.44Z"/><path class="cls-68" d="M71.77,181.89c-3.27-.26-6.57,1.33-9.76.57-.55-.14-1.17-.44-1.24-1s.61-1.07,1.2-1.29a10.37,10.37,0,0,1,9.77,1.46h.16v.06A2.26,2.26,0,0,1,71.77,181.89Z"/><path class="cls-69" d="M71.5,175.31a42.55,42.55,0,0,1-8.29-.65,3.43,3.43,0,0,1-1.42-.55,1.31,1.31,0,0,1-.51-1.35,1.68,1.68,0,0,1,1.08-.91,6.77,6.77,0,0,1,5.07.4A14.42,14.42,0,0,1,71.5,175.31Z"/><path class="cls-70" d="M74.66,147.93A108.23,108.23,0,0,0,86.39,227.4"/><path class="cls-50" d="M74.66,147.93a114.63,114.63,0,0,0-2.47,20.36,115.4,115.4,0,0,0,6,40.33l1.74,4.82,2,4.74L84,222.84l2.38,4.56L83.77,223l-2.37-4.57-2.11-4.71-1.88-4.81a103.88,103.88,0,0,1-6-40.61A96.29,96.29,0,0,1,74.66,147.93Z"/><path class="cls-71" d="M163.2,184.05a59.8,59.8,0,0,1-5.93,13.68,83,83,0,0,1-8.54,12.12,79,79,0,0,1-10.63,10.38,53.33,53.33,0,0,1-12.65,7.7l0-.15c2.89-4,5.93-7.66,8.92-11.33s6.11-7.33,9.19-11,6.18-7.24,9.38-10.85A140.79,140.79,0,0,1,163.2,184.05Z"/><path class="cls-72" d="M162.61,165.1a52.28,52.28,0,0,1-5.25,12.66,72.57,72.57,0,0,1-7.8,11.17,68.2,68.2,0,0,1-9.81,9.48,46.51,46.51,0,0,1-11.48,6.8c0-.15,0-.3,0-.46,2.49-3.61,5.13-6.86,7.74-10.11,2.77-3.4,5.54-6.75,8.36-10.08s5.68-6.62,8.63-9.89A112.08,112.08,0,0,1,162.61,165.1Z"/><path class="cls-73" d="M156.41,119.14a35.58,35.58,0,0,1-2.3,11.45,48.1,48.1,0,0,1-5.3,10.34,45.09,45.09,0,0,1-7.68,8.76,30.76,30.76,0,0,1-10,6.08c2-3.47,4.07-6.51,6.08-9.58l6-9c2-3,4-6,6.17-9A96.42,96.42,0,0,1,156.41,119.14Z"/><path class="cls-74" d="M137.49,64.37a19.7,19.7,0,0,1,.25,6.87,27.9,27.9,0,0,1-1.67,6.49,26.42,26.42,0,0,1-3.22,5.9,18,18,0,0,1-5,4.76,41.85,41.85,0,0,1,1.44-6.53c.62-2,1.3-4,2.06-6S133,72,133.94,70.09A32.47,32.47,0,0,1,137.49,64.37Z"/><path class="cls-75" d="M133.08,55.17a20.07,20.07,0,0,1-.77,5.82,19.41,19.41,0,0,1-2.46,5.36,12.91,12.91,0,0,1-4.38,4.21,38.64,38.64,0,0,1,.73-5.76c.35-1.77.76-3.49,1.25-5.2a48.72,48.72,0,0,1,1.72-5.11,25.75,25.75,0,0,1,2.67-5.21A14.8,14.8,0,0,1,133.08,55.17Z"/><path class="cls-76" d="M131.15,129.3c2.3-2.22,4.35-4.27,6.27-6.44s3.69-4.36,5.4-6.64,3.36-4.66,5-7.08,3.34-4.91,5.35-7.39a27.3,27.3,0,0,1-1.82,9.22,33.38,33.38,0,0,1-4.52,8.28,28.92,28.92,0,0,1-6.86,6.61A19.6,19.6,0,0,1,131.15,129.3Z"/><path class="cls-77" d="M130.22,181.49c2.39-3.68,4.95-6.9,7.5-10.12s5.13-6.33,7.75-9.42,5.29-6.16,8.08-9.19a92.52,92.52,0,0,1,9.06-8.82,46.7,46.7,0,0,1-4.75,11.91,64.94,64.94,0,0,1-7.25,10.45,61.49,61.49,0,0,1-9.2,8.83A41.22,41.22,0,0,1,130.22,181.49Z"/><path class="cls-78" d="M130.7,129.2a.49.49,0,0,0,0-.12l.17.12Z"/><path class="cls-79" d="M124.47,147.78c2,2.59,4.16,5.12,6.38,8.06a23.6,23.6,0,0,1-10-4.19,35.05,35.05,0,0,1-7.73-7.5,37.69,37.69,0,0,1-5.18-9.37,28.87,28.87,0,0,1-2-10.54,93.52,93.52,0,0,1,6.65,8l5.9,7.84C120.47,142.65,122.43,145.21,124.47,147.78Z"/><path class="cls-80" d="M130.69,129.08a.49.49,0,0,1,0,.12,20.42,20.42,0,0,1-10-3.08,32.64,32.64,0,0,1-8.1-6.92,39.13,39.13,0,0,1-5.68-8.89,32.34,32.34,0,0,1-2.9-10.08c2.3,2.71,4.28,5.41,6.31,8s4,5.19,6.11,7.65a86.24,86.24,0,0,0,6.62,7A61.7,61.7,0,0,0,130.69,129.08Z"/><path class="cls-81" d="M129.42,107.13l4-6.37c1.32-2.12,2.57-4.23,3.82-6.36L141,87.93a65,65,0,0,1,4.38-6.61,22.53,22.53,0,0,1-.71,8.12,28.63,28.63,0,0,1-3.1,7.51,26.39,26.39,0,0,1-5.16,6.38,17.79,17.79,0,0,1-7,4A.82.82,0,0,0,129.42,107.13Z"/><path class="cls-82" d="M130.18,181.44l0,.05h-.05A.06.06,0,0,1,130.18,181.44Z"/><path class="cls-83" d="M130.18,181.44a.06.06,0,0,0,0,0A28.59,28.59,0,0,1,119,176.76a42.68,42.68,0,0,1-9-8.18,47.78,47.78,0,0,1-6.51-10.15A37.5,37.5,0,0,1,100,146.84a108,108,0,0,1,8,8.74l7.2,8.69c2.39,2.86,4.79,5.69,7.28,8.51S127.48,178.34,130.18,181.44Z"/><path class="cls-84" d="M129.42,107.13a.82.82,0,0,1,0,.21l-.18,0Z"/><path class="cls-85" d="M123,101.42a53.2,53.2,0,0,1,5.89,6,29.12,29.12,0,0,1-8.12-2.73,29.84,29.84,0,0,1-7.07-5,27.25,27.25,0,0,1-5.27-6.91,20.62,20.62,0,0,1-2.48-8.3c2.1,2.06,3.88,4.08,5.71,6s3.65,3.75,5.53,5.55S121,99.61,123,101.42Z"/><path class="cls-86" d="M128.32,204.75c0,.16,0,.31,0,.46l-.38.15C128,205.15,128.17,205,128.32,204.75Z"/><path class="cls-87" d="M119.44,196.16c2.68,3,5.5,5.94,8.45,9.2A31.76,31.76,0,0,1,116,200.15a47.57,47.57,0,0,1-9.57-8.78,53.74,53.74,0,0,1-7-10.83,41.39,41.39,0,0,1-3.89-12.32c3.11,3.1,5.73,6.32,8.36,9.47l7.7,9.36C114.14,190.13,116.73,193.16,119.44,196.16Z"/><path class="cls-88" d="M123.38,84.27c1.34,1.41,2.69,2.84,4.14,4.6a13,13,0,0,1-6.43-1.37,19.84,19.84,0,0,1-5.28-3.72A21.13,21.13,0,0,1,112,78.66a16.08,16.08,0,0,1-1.93-6.2,36.08,36.08,0,0,1,5.06,3.74c1.5,1.31,2.89,2.62,4.25,4S122,82.86,123.38,84.27Z"/><path class="cls-89" d="M125.48,227.78l0,.15-.13,0Z"/><path class="cls-90" d="M125.27,70.49l.11.13h-.08A.32.32,0,0,0,125.27,70.49Z"/><path class="cls-91" d="M115.94,218.12c3,3.28,6.09,6.42,9.38,9.86a35.87,35.87,0,0,1-12.84-5.87,54,54,0,0,1-10.37-9.59,60.72,60.72,0,0,1-7.66-11.76A47.46,47.46,0,0,1,90,187.45c3.29,3.45,6.09,7,8.92,10.46s5.57,6.92,8.38,10.29S113,214.88,115.94,218.12Z"/><path class="cls-92" d="M125.27,70.49a.32.32,0,0,1,0,.14,9.63,9.63,0,0,1-5.44-.49,14.44,14.44,0,0,1-4.59-2.82A15.34,15.34,0,0,1,112,63.14a11.72,11.72,0,0,1-1.42-5.27,24,24,0,0,1,4.47,2.71c1.3,1,2.48,2,3.61,3s2.2,2.09,3.29,3.21S124.09,69,125.27,70.49Z"/><path class="cls-93" d="M122.88,55.84a28.18,28.18,0,0,1-3.6-5.27,46.75,46.75,0,0,1-2.63-5.72c-.76-2-1.35-3.92-1.92-5.86s-1.12-3.88-1.82-6.14a12.05,12.05,0,0,1,5.36,4.34A25,25,0,0,1,121.36,43,30.61,30.61,0,0,1,123,49.32a20.67,20.67,0,0,1,0,6.71A1.54,1.54,0,0,1,122.88,55.84Z"/><path class="cls-94" d="M123,55.24a541.68,541.68,0,0,1-.72,192.6"/><path class="cls-50" d="M123,55.24l2.11,11.92,1.84,12,1.51,12,1.23,12c1.45,16.08,2.1,32.23,2.08,48.38s-.86,32.3-2.43,48.38L128,212l-1.59,12-1.93,11.95-2.21,11.9,2-11.94,1.68-12,1.46-12,1.18-12c1.41-16.07,2.18-32.19,2.2-48.31s-.56-32.25-1.84-48.32l-1.1-12-1.36-12-1.6-12Z"/><path class="cls-95" d="M78.13,189c1.25,3,0,6.08-1.18,8.89q-6.15,14.17-13.44,27.81c-9.71-34.41-34.58-74.29-57.27-99.88a6.15,6.15,0,0,1,2.81-.77c3.87-.13,6.89,2.65,8.81,5.77,1.07,1.74,1.95,3.69,3.88,4.66a3.23,3.23,0,0,0,3,0c1.57-.94,1.47-2.85,1.59-4.51.1-1.45.73-3.18,2.17-3.38a2.67,2.67,0,0,1,2.09.82c2.1,1.93,2.1,5.22,1.58,8-.64,3.43-1.82,7,.29,10.23a4,4,0,0,0,5.25,1.46c1.84-1.06,1.92-3.34,2.41-5.26s2.23-4,4.18-2.9a2.91,2.91,0,0,1,1.2,1.51c1.73,4.39.25,9.16-.73,13.71A20.2,20.2,0,0,0,44.5,164a2.16,2.16,0,0,0,3.94.59L53.71,156c.58-.95,1.28-2,2.61-1.84A2.27,2.27,0,0,1,58,155.33c.83,1.48.38,3.09-.07,4.59q-2.52,8.55-5,17.09c-.59,2-1.1,4.36.6,5.79a3.77,3.77,0,0,0,4.68-.06c2.92-2.2,3.11-5.85,4.74-8.77,1-1.76,3.28-3.37,4.86-1.6a2.94,2.94,0,0,1,.5,2.87A98,98,0,0,1,61,191.32c-1.14,2-2.4,4.19-1.79,6.59a3.15,3.15,0,0,0,3.31,2.51c1.59-.19,2.5-1.73,3.22-3.11,1.13-2.17,2.25-4.34,3.38-6.49s2.68-4.72,5.38-4.56A4.32,4.32,0,0,1,78.13,189Z"/><path class="cls-96" d="M63.51,225.74c.1.34.19.67.28,1l-.08,0-27.33-1.24a14.86,14.86,0,0,1-5.66-1c-2.87-1.35-5-5.15-.69-8.24A9.33,9.33,0,0,1,32.59,215l12.26-4.3c1.38-.48,3-1.29,2.72-2.93a2.52,2.52,0,0,0-1.5-1.78,31.81,31.81,0,0,0-18.63-2,14.52,14.52,0,0,1-5.38.55c-2.41-.44-4.74-3-2.43-5.61a5.36,5.36,0,0,1,1.8-1.29,58.61,58.61,0,0,1,13.62-4.41c2.43-.48,5.63-1.65,5-4.31a3.25,3.25,0,0,0-2.34-2.33A42.77,42.77,0,0,0,21,185.5a11.48,11.48,0,0,1-4.17.08c-1.87-.47-3.59-2.46-2-4.57a4.45,4.45,0,0,1,2.48-1.54l13.18-3.21c1.57-.39,3.43-1,3.4-2.9a2.93,2.93,0,0,0-2.22-2.7,50.38,50.38,0,0,0-18.3-1.3c-1.94.22-4,.53-5.69-.68A2.74,2.74,0,0,1,6.55,166c.3-1.53,1.8-2,3.12-2.37l14.1-3.8a1,1,0,0,0,.12-1.83,37.71,37.71,0,0,0-17-2.63,11.65,11.65,0,0,1-4.33-.11c-1.95-.6-3.65-2.86-1.6-4.93a4.71,4.71,0,0,1,2-1.14,78.13,78.13,0,0,1,13.28-2.85l-8.93-9.4c-2.18-2.3-4.54-5.15-3.39-8.35a5.12,5.12,0,0,1,2.38-2.73C28.93,151.45,53.8,191.33,63.51,225.74Z"/><path class="cls-97" d="M65.74,234c-7.67-36.31-34.82-80.45-59.5-108.16"/><path class="cls-50" d="M65.74,234c-.67-2.5-1.27-5-2-7.52s-1.5-5-2.37-7.41-1.69-4.91-2.66-7.31-1.89-4.83-2.95-7.19A275.21,275.21,0,0,0,41.84,176.8c-5.1-9-10.7-17.77-16.62-26.28-1.47-2.14-3-4.22-4.52-6.34S17.58,140,16,138s-3.21-4.08-4.81-6.12l-5-6a257.58,257.58,0,0,1,19.61,24.21,307,307,0,0,1,16.86,26.24,257.28,257.28,0,0,1,13.77,28A156.84,156.84,0,0,1,65.74,234Z"/></g><path class="cls-98" d="M167.51,125.86a7.66,7.66,0,0,0-1.77-3.74,15.24,15.24,0,0,0-6.52-4.3l.09.06a12.16,12.16,0,0,0-1.55-.7c-5.52-2-2.57-14.4-2.57-14.4,2.73-4.42,1.17-16-4.35-19.18-3.19-1.85-4.67-5.95-5.35-9.08a14,14,0,0,0-12.5-11,9.55,9.55,0,0,0-1.37,0s-7.48-.11-12.2,8.65a8.78,8.78,0,0,0-1.06,2.41,16.49,16.49,0,0,0-.58,3.9c0,1.08-.58,3.07-3.46,4.36a11.46,11.46,0,0,0-3.7,2.44,15.72,15.72,0,0,0-4.51,12.92,11.75,11.75,0,0,1-.23,7.73,11.13,11.13,0,0,1-6.12,6.06c-3.11,1.34-8.4,4.81-6.8,12.57,0,0,1.41,6.79,9.31,2.91,0,0,3.53-1.38,5,4.6s14,9.3,20.55,5.05c0,0,10.91,3.63,20.33.53,2.83-.93,3.63-3.8,6.35-4.29a14.81,14.81,0,0,0,5.31.62,10.36,10.36,0,0,0,3.92-1,7,7,0,0,0,3-2.89A6.81,6.81,0,0,0,167.51,125.86Zm-2,3.48a7,7,0,0,1-4.67,3.27,6.49,6.49,0,0,0,3.08-3.52,8.56,8.56,0,0,0-2.35-9.58,18,18,0,0,1,3.29,3.3,6.85,6.85,0,0,1,1.32,3.22A5.65,5.65,0,0,1,165.51,129.34Z"/><path class="cls-99" d="M150.22,118.7l-7,10.34a1.74,1.74,0,0,1-1.72.75,78.05,78.05,0,0,0-20,0,1.74,1.74,0,0,1-1.72-.75l-6.66-9.82-.35-.52s9.15.11,7.52-16.51h22.38c-1.12,11.34,2.78,14.9,5.28,16A5.85,5.85,0,0,0,150.22,118.7Z"/><path class="cls-100" d="M150.22,118.7l-7,10.34a1.74,1.74,0,0,1-1.72.75,78.05,78.05,0,0,0-20,0,1.74,1.74,0,0,1-1.72-.75l-6.66-9.82c2.56,1.46,5.78,3.35,9.81,5.77,12.15,7.32,21.09-1.55,25-6.84A5.85,5.85,0,0,0,150.22,118.7Z"/><path class="cls-101" d="M120.18,129.17s1.88,11.25,1.18,15.44a50.23,50.23,0,0,0,20.59,0s0-12.32.59-15.4C142.54,129.21,137.79,125.16,120.18,129.17Z"/><path class="cls-101" d="M131.51,48v.17c0,.58,0,1.1,0,1.52,0,.09,0,.19,0,.3a2.93,2.93,0,0,1-.79,1.69c-.05,0-.09.1-.14.14-5,4.41-27.5,24.54-28.42,26.9l18.2,23.49a23.41,23.41,0,0,1,.3,9.28c-.72,3.47-2.79,6.72-7.82,7.23,0,0-2.66-3.79-6.22-9.1-4.89-7.36-11.5-17.63-15-24.73a35.88,35.88,0,0,1-2-4.5,3.58,3.58,0,0,1,1-3.83l3.18-2.93c6.23-5.71,17.37-15.83,25.1-22.48,1.23-1.06,2.55-2,3.86-3,.94-.69,2.32-2.35,3-6.31,1-5.3,3.53-8.44,4.85-9.42a1.61,1.61,0,0,1,.63-.3c.08,0,.17.18.21.53h0c0,.2,0,.43.08.7C131.75,36.33,131.58,43.78,131.51,48Z"/><path class="cls-101" d="M173.45,80.37a39.08,39.08,0,0,1-2.12,4.8C167.9,92,161.74,101.61,157,108.8c-3.81,5.72-6.74,9.9-6.74,9.9-4.86-.5-7-3.55-7.74-6.9a23,23,0,0,1,.23-9.61L160.9,78.7c-.9-2.36-23.45-22.49-28.4-26.9-.06-.06-.13-.11-.18-.17a2.87,2.87,0,0,1-.78-2c0-.42,0-.94,0-1.52V48c0-.39,0-.82,0-1.27-.12-4.74-.36-12-.08-14h0c0-.14,0-.25.08-.34s.08-.21.14-.19a1.8,1.8,0,0,1,.74.39h0c1.41,1.06,4,4.18,4.95,9.33.71,4,2.1,5.62,3,6.31,1.31,1,2.63,1.9,3.86,3,7.56,6.5,18.35,16.33,24.67,22.09,1.49,1.36,2.72,2.49,3.61,3.32A3.6,3.6,0,0,1,173.45,80.37Z"/><path class="cls-102" d="M157,108.8c-3.81,5.72-6.74,9.9-6.74,9.9-4.86-.5-7-3.55-7.74-6.9,3.92-3.35,13-10.28,14.31-4.5A7,7,0,0,1,157,108.8Z"/><path class="cls-103" d="M120.63,111.47c-.72,3.47-2.79,6.72-7.82,7.23,0,0-2.66-3.79-6.22-9.1a6.6,6.6,0,0,1,.13-2.3C108,101.72,116.52,108,120.63,111.47Z"/><path class="cls-104" d="M173.45,80.37a39.08,39.08,0,0,1-2.12,4.8,7.21,7.21,0,0,1-2.45-12c1.49,1.36,2.72,2.49,3.61,3.32A3.6,3.6,0,0,1,173.45,80.37Z"/><path class="cls-105" d="M95.57,78.42a7.18,7.18,0,0,1-4,6.45,35.88,35.88,0,0,1-2-4.5,3.58,3.58,0,0,1,1-3.83l3.18-2.93A7.08,7.08,0,0,1,95.57,78.42Z"/><path class="cls-106" d="M132.32,51.63a2.87,2.87,0,0,1-.78-2c0-.42,0-.94,0-1.52,0,.58,0,1.1,0,1.52,0,.09,0,.19,0,.3V32.33c0-.14.08-.21.14-.19a1.8,1.8,0,0,1,.74.39h0C135.2,39.22,133.5,47.5,132.32,51.63Z"/><path class="cls-107" d="M131.48,32.33V50a2.93,2.93,0,0,1-.79,1.69c-1.18-4.06-3-12.44-.13-19.22a1.61,1.61,0,0,1,.63-.3c.08,0,.17.18.21.53C131.43,32.53,131.45,32.42,131.48,32.33Z"/><path class="cls-101" d="M140.06,102.37c-2.53,12-8.54,11.87-8.54,11.87-6.91.52-8.55-11.78-8.55-11.78,2-1.44,3-4,3.45-6.29h0a23.19,23.19,0,0,0,.47-4.86h8.82a14.78,14.78,0,0,0,.65,5A14.45,14.45,0,0,0,140.06,102.37Z"/><path class="cls-101" d="M136.36,96.25a10.63,10.63,0,0,1-9.94-.08h0a23.19,23.19,0,0,0,.47-4.86h8.82A14.78,14.78,0,0,0,136.36,96.25Z"/><path class="cls-101" d="M140.86,84.61a1.31,1.31,0,0,1-.05.15,13.09,13.09,0,0,1-7.69,9.5,3.79,3.79,0,0,1-2.92,0,13.37,13.37,0,0,1-3.85-2.54,13.51,13.51,0,0,1-3.86-7,.23.23,0,0,1-.11,0c-2.08-.5-3.32-4.29-2.52-5.38s2.28.33,2.3.35a11.1,11.1,0,0,1,4.4-8.06c1.79-1.31,3.74,1.35,5.11,1.59,1.36-.24,3.33-2.89,5.13-1.56a11,11,0,0,1,4.35,7.79c.47-.36,1.42-.93,2-.11C144,80.31,142.81,83.93,140.86,84.61Z"/><path class="cls-101" d="M158.52,227.37s-4.69.7-9.47,1.45c-3.19.5-6.43,1-8.35,1.41-.69.14-1.2.25-1.49.33,0,0-3.91,10.28-3.13,17.56a.91.91,0,0,1-.3.81c-.62.49-1.9,1.11-3.2-.92-1.63-2.57-.68-10.35-3.53-16a8,8,0,0,1-.72-5.48c.5-2.06,2.51-3.9,6.19-3.93,0,0,1.81-.33,4.46-.95,2.25-.53,5.09-1.25,7.94-2.15a45.42,45.42,0,0,0,8.74-3.59Z"/><path class="cls-108" d="M149.05,228.82c-3.19.5-6.43,1-8.35,1.41L139,221.61c2.25-.53,5.09-1.25,7.94-2.15Z"/><path class="cls-109" d="M177.47,225.31c-10.58,2.95-22.6,5.92-26,6.75a1.07,1.07,0,0,1-1.27-.69c-1-2.62-3.63-10.26-4-13.93a1.09,1.09,0,0,1,.56-1.06L161,208.57s-21.46-15.73-27.65-24.41l0,0-.07.28s-3.26,28.31-4,40.27c-.13,2.13-.18,3.75-.13,4.59.38,5.21-.47,33.31-2.2,38.54a1.07,1.07,0,0,1-1,.72H114.08a1.07,1.07,0,0,1-1.08-.93c-.55-4.32-2.81-22.37-3-27.87-.08-2-.39-5.53-.82-9.68,0,0,0,0,0,0-1-10.53-2.82-25.16-3.53-30.5-1-7.43-.4-26.72,5.34-36.48,5.12-8.7,9.29-16.66,10.14-18.29a.55.55,0,0,1,.51-.31h20.29a.55.55,0,0,1,.46.24c2.18,3,25,34.79,36.2,50.48,3.32,4.65,5.62,7.87,6.05,8.54C186.57,206.72,189.93,221.82,177.47,225.31Z"/><path class="cls-110" d="M177.47,225.31c-10.58,2.95-22.6,5.92-26,6.75a1.07,1.07,0,0,1-1.27-.69c-1-2.62-3.63-10.26-4-13.93a1.09,1.09,0,0,1,.56-1.06L161,208.57s-21.46-15.73-27.65-24.41c1.15,1.06,41.29,38.12,46.1,31.71,2.38-3.18,1.06-12.25-.94-20.72,3.32,4.65,5.62,7.87,6.05,8.54C186.57,206.72,189.93,221.82,177.47,225.31Z"/><path class="cls-17" d="M252.78,148.85a24.76,24.76,0,0,1,7.73,2.51c-2.72.51-5.31.73-7.88,1s-5.08.41-7.6.59l-7.62.51c-2.51.13-5,.28-7.74.19.27-.21.51-.43.76-.65a25.94,25.94,0,0,1,6.34-3,35.14,35.14,0,0,1,7.94-1.51A34.07,34.07,0,0,1,252.78,148.85Z"/><path class="cls-22" d="M246.55,141.77s0,0,0,0h0Z"/><path class="cls-24" d="M220.67,181.88a27.27,27.27,0,0,1,9.24,2c-3.13.58-6.11,1-9.06,1.49s-5.82,1-8.69,1.65-5.73,1.33-8.6,2.11-5.71,1.61-8.76,2.38l.06-.14a27.68,27.68,0,0,1,7.43-5.47,36.61,36.61,0,0,1,8.93-3.2A36.15,36.15,0,0,1,220.67,181.88Z"/><path class="cls-111" d="M185.27,210c-.41.4-.8.82-1.18,1.26a.14.14,0,0,0,0,.06,2.73,2.73,0,0,0,0,.41.17.17,0,0,0,0,.07l.52-.21"/><path class="cls-26" d="M229.48,153.61c.31-.23.62-.45,1-.65-.25.22-.49.44-.76.65Z"/><path class="cls-27" d="M229.48,153.42c.77-.59,1.55-1.19,2.34-1.76-.45.44-.91.87-1.39,1.3-.33.2-.64.42-1,.65h.19l-.28.25A3.43,3.43,0,0,1,229.48,153.42Z"/><path class="cls-28" d="M229.48,153.42a26.58,26.58,0,0,1,2.66-7,36.93,36.93,0,0,1,4.43-6.48,37.37,37.37,0,0,1,5.69-5.41,25.86,25.86,0,0,1,6.91-3.88A61.3,61.3,0,0,1,244.7,137q-2.34,3-4.76,5.8c-1.62,1.89-3.27,3.76-5,5.61-1,1.08-2,2.16-3.12,3.21,0,0,0,0,0,0C231,152.23,230.25,152.83,229.48,153.42Z"/><path class="cls-29" d="M211.51,170.05a27.53,27.53,0,0,1,8.12-4.79,37.3,37.3,0,0,1,18.63-2.14,27.22,27.22,0,0,1,9,2.85c-3.16.3-6.16.42-9.14.63s-5.88.46-8.8.79-5.82.74-8.76,1.21S214.66,169.62,211.51,170.05Z"/><path class="cls-31" d="M215.61,164.17a57,57,0,0,1-4.63,5.88,24.62,24.62,0,0,1,1.55-7.47,35.56,35.56,0,0,1,8-12.68,24.43,24.43,0,0,1,6.07-4.6,55.81,55.81,0,0,1-3.3,6.71c-1.2,2.11-2.43,4.15-3.71,6.17S217,162.19,215.61,164.17Z"/><path class="cls-32" d="M207.84,157.8c-1,3-2.16,5.85-3.27,8.66l-3.29,8.34c-1.08,2.78-2.14,5.57-3.19,8.39-.94,2.44-1.84,4.91-2.91,7.42l-.56.87a31.17,31.17,0,0,1,.11-9.15,42.93,42.93,0,0,1,6.78-17.5A31.1,31.1,0,0,1,207.84,157.8Z"/><path class="cls-33" d="M194.7,191.51l.16-.16-.06.14Z"/><path class="cls-34" d="M194.7,191.51l.1,0-.13.3c0-.11,0-.2,0-.31l.56-.87c-.1.25-.21.49-.32.74Z"/><path class="cls-112" d="M268.16,131.48s-18.92,8.6-27.51,14.16"/><path class="cls-113" d="M287,126.9a22.58,22.58,0,0,1,6.93,1.75,45.08,45.08,0,0,1-6.79,1.72c-2.24.41-4.44.74-6.65,1s-4.44.46-6.7.58a44.5,44.5,0,0,1-7-.09,22.43,22.43,0,0,1,6.33-3.31A32.88,32.88,0,0,1,280,127,31.78,31.78,0,0,1,287,126.9Z"/><path class="cls-16" d="M274.19,144.24c-2.55,0-4.88-.25-7.18-.45l-6.82-.63-6.82-.6c-2.07-.2-4.18-.38-6.4-.73a49.6,49.6,0,0,1,6.22-2.74,27.59,27.59,0,0,1,14.62,1.32A19.78,19.78,0,0,1,274.19,144.24Z"/><path class="cls-18" d="M263.67,126.74a24.84,24.84,0,0,1-3.4,4.86,42,42,0,0,1-4,4,43.68,43.68,0,0,1-4.49,3.44l-1.05.66c-1.25.52-3,2.06-4.1,1.77a19.46,19.46,0,0,1,2.77-5,28.82,28.82,0,0,1,3.95-4.23,27.71,27.71,0,0,1,4.72-3.37A19,19,0,0,1,263.67,126.74Z"/><path class="cls-114" d="M76.94,197.93q-3,7-6.34,13.84A114.31,114.31,0,0,1,54.51,199.7c-.37-.33-.74-.66-1.1-1A310.13,310.13,0,0,0,20,142.82c-4.58-6.12-9.22-11.83-13.77-17a6.18,6.18,0,0,1,2.8-.77c3.7-.12,6.62,2.4,8.55,5.35l.27.43c1.07,1.74,1.95,3.68,3.87,4.65a3.2,3.2,0,0,0,3,0c1.58-.93,1.48-2.85,1.6-4.5.09-1.46.73-3.19,2.17-3.39a2.71,2.71,0,0,1,2.09.82c2.09,1.93,2.1,5.22,1.58,8-.63,3.43-1.83,7,.28,10.22a4,4,0,0,0,5.25,1.47c1.85-1.07,1.92-3.34,2.42-5.27s2.23-4,4.17-2.89a2.84,2.84,0,0,1,1.2,1.5c1.73,4.4.26,9.17-.73,13.71A20,20,0,0,0,44.5,164a2.16,2.16,0,0,0,3.94.6L53.7,156c.59-1,1.29-2,2.61-1.84A2.23,2.23,0,0,1,58,155.34c.82,1.47.37,3.09-.07,4.58q-2.53,8.55-5.06,17.1c-.58,2-1.1,4.36.61,5.79a3.76,3.76,0,0,0,4.67-.07c2.94-2.19,3.12-5.84,4.74-8.76,1-1.76,3.28-3.38,4.86-1.6a2.9,2.9,0,0,1,.5,2.86A97.71,97.71,0,0,1,61,191.33c-1.14,2-2.4,4.18-1.79,6.58a3.16,3.16,0,0,0,3.31,2.52c1.58-.2,2.5-1.74,3.22-3.12l3.37-6.49c1.14-2.22,2.69-4.72,5.39-4.56A4.31,4.31,0,0,1,78.12,189C79.38,192.09,78.17,195.13,76.94,197.93Z"/><path class="cls-115" d="M53.41,198.7l-.47-.44a114.08,114.08,0,0,1-19.38-23.6,2.1,2.1,0,0,0,.37-1.3,2.91,2.91,0,0,0-2.21-2.7c-.21,0-.41-.11-.62-.15a50.36,50.36,0,0,0-17.68-1.14c-1.94.21-4,.53-5.69-.69A2.68,2.68,0,0,1,6.56,166c.29-1.52,1.78-2,3.1-2.36l14.1-3.8a1,1,0,0,0,.13-1.83,37.46,37.46,0,0,0-17-2.63,11.65,11.65,0,0,1-4.33-.12c-1.95-.6-3.64-2.85-1.59-4.93a4.82,4.82,0,0,1,2-1.14,77.93,77.93,0,0,1,13.28-2.85l-8.93-9.4c-2.19-2.3-4.55-5.14-3.39-8.34a5.13,5.13,0,0,1,2.38-2.74c4.55,5.13,9.19,10.84,13.77,17A310.13,310.13,0,0,1,53.41,198.7Z"/><path class="cls-116" d="M42.7,176.31C47,183.92,51,191.71,54.51,199.7c-.37-.33-.74-.66-1.1-1l-.47-.44q-5.07-11-11.1-21.45c-5.1-9-10.7-17.77-16.62-26.29-1.47-2.14-3-4.22-4.52-6.33-.17-.24-.34-.48-.52-.71-1.36-1.86-2.78-3.67-4.16-5.51-1.56-2.07-3.21-4.08-4.81-6.12l-5-6C11,131,15.51,136.42,19.81,142q3.09,4,6,8.09A305.29,305.29,0,0,1,42.7,176.31Z"/></g></g></g></svg>